<svg width="11" viewBox="0 0 11 0" fill="none" xmlns="http://www.w3.org/2000/svg">
<path d="M8.08661e-08 -0.5C-0.276142 -0.5 -0.5 -0.276142 -0.5 -8.08661e-08C-0.5 0.276142 -0.276142 0.5 -8.08661e-08 0.5L8.08661e-08 -0.5ZM11.3536 0.353555C11.5488 0.158293 11.5488 -0.158289 11.3536 -0.353552L8.17157 -3.53553C7.97631 -3.73079 7.65973 -3.73079 7.46447 -3.53553C7.2692 -3.34027 7.2692 -3.02369 7.46447 -2.82843L10.2929 1.66469e-06L7.46447 2.82843C7.2692 3.02369 7.2692 3.34027 7.46447 3.53554C7.65973 3.7308 7.97631 3.7308 8.17157 3.53554L11.3536 0.353555ZM-8.08661e-08 0.5L11 0.500002L11 -0.499998L8.08661e-08 -0.5L-8.08661e-08 0.5Z" fill="white"/>
</svg>
