<svg width="12" viewBox="0 0 12 0" fill="none" xmlns="http://www.w3.org/2000/svg">
<path d="M0.5 -0.5C0.223858 -0.5 4.46611e-08 -0.276142 0 -8.08661e-08C-4.46611e-08 0.276142 0.223858 0.5 0.5 0.5L0.5 -0.5ZM11.8536 0.353555C12.0488 0.158293 12.0488 -0.158289 11.8536 -0.353552L8.67157 -3.53553C8.47631 -3.73079 8.15973 -3.73079 7.96447 -3.53553C7.7692 -3.34027 7.7692 -3.02369 7.96447 -2.82843L10.7929 1.66469e-06L7.96447 2.82843C7.7692 3.02369 7.7692 3.34027 7.96447 3.53554C8.15973 3.7308 8.47631 3.7308 8.67157 3.53554L11.8536 0.353555ZM0.5 0.5L11.5 0.500002L11.5 -0.499998L0.5 -0.5L0.5 0.5Z" fill="white"/>
</svg>
