<svg width="24" height="27" viewBox="0 0 24 27" fill="none" xmlns="http://www.w3.org/2000/svg">
<path d="M0.726807 6.0211C0.726802 10.1474 3.66815 20.6209 6.66287 25.6675C6.90867 26.0817 7.35956 26.3187 7.84121 26.3187C8.44432 26.3187 8.98299 25.9414 9.1891 25.3746L9.86067 23.5278L11.3468 19.7062C11.5216 19.2568 11.9543 18.9608 12.4365 18.9608C12.8793 18.9608 13.2841 19.211 13.4822 19.6071L13.8207 20.2841C13.8869 20.4165 13.9406 20.5547 13.9813 20.6971L14.6892 23.1746C14.8519 23.7441 15.111 24.2815 15.4553 24.7635L16.051 25.5974C16.1512 25.7378 16.2843 25.8516 16.4387 25.9287C16.8916 26.1552 17.4414 26.0289 17.7502 25.6276L19.2046 23.7367C19.5674 23.2652 19.8189 22.7179 19.9406 22.1356L22.9977 7.50542C23.2014 6.53052 23.1648 5.5207 22.8912 4.56307L22.7434 4.04577C22.452 3.02574 21.8186 2.13698 20.9495 1.52863C20.1725 0.984724 19.247 0.692985 18.2985 0.692985H17.6709C16.7045 0.692985 15.7526 0.91118 14.862 1.28646C14.5672 1.41069 14.2572 1.53738 13.9452 1.65945C12.1503 2.36162 10.2406 1.95485 8.39341 1.40483C7.29588 1.07802 6.20411 0.824319 5.54744 0.692985C4.61715 0.439265 0.726813 0.886174 0.726807 6.0211Z" fill="white"/>
</svg>
